<svg width="57" height="39" viewBox="0 0 57 39" fill="none" xmlns="http://www.w3.org/2000/svg">
<path d="M22.956 17.8265C22.956 17.8265 28.2947 17.3747 28.2947 10.6881C28.2947 4.00939 23.9219 0.0993652 18.3904 0.0993652H0.721985V38.7956H17.3108C17.3108 38.7956 29.5065 38.4808 29.5065 27.0843C29.5065 27.0843 29.9919 17.8265 22.956 17.8265ZM18.3904 7.83823C18.3904 7.83823 20.663 7.71399 20.663 11.5997C20.663 15.4832 19.4094 15.5781 17.7598 15.5781H7.97463V7.83823H18.3904ZM17.9231 31.057C14.9079 31.057 7.97463 31.057 7.97463 31.057V21.3827H18.3904C18.3904 21.3827 22.0763 21.4521 22.0763 26.6295C22.0763 30.9493 19.4535 31.057 17.9231 31.057Z" fill="black"/>
<path d="M44.3319 10.3712C30.8773 10.3712 30.8881 24.6705 30.8881 24.6705C30.8881 24.6705 29.9589 39 44.3319 39C44.3319 39 56.3038 38.7954 56.3038 29.1212H50.1492C50.1492 29.1212 50.1345 32.9196 44.3246 33.0517C42.3194 33.0977 38.7988 32.6282 38.7988 27.1867H56.9306C56.9306 27.1868 58.4959 10.3712 44.3319 10.3712ZM49.7919 21.3825H38.2964C38.2964 21.3825 39.0609 15.8313 44.4694 15.8313C49.8724 15.8313 49.7919 21.3825 49.7919 21.3825Z" fill="black"/>
<path d="M51.4908 2.03479H36.9861V7.83822H51.4908V2.03479Z" fill="black"/>
</svg>
