<svg width="49" height="39" viewBox="0 0 49 39" fill="none" xmlns="http://www.w3.org/2000/svg">
<g clip-path="url(#clip0)">
<path d="M7.0687 8.63067C5.63586 8.63067 4.45774 8.21674 3.53435 7.38888C2.6428 6.52917 2.19703 5.47842 2.19703 4.23662C2.19703 2.96298 2.6428 1.91222 3.53435 1.08436C4.45774 0.224649 5.63586 -0.205204 7.0687 -0.205204C8.46971 -0.205204 9.61598 0.224649 10.5075 1.08436C11.4309 1.91222 11.8926 2.96298 11.8926 4.23662C11.8926 5.47842 11.4309 6.52917 10.5075 7.38888C9.61598 8.21674 8.46971 8.63067 7.0687 8.63067ZM11.1284 11.4008V38.0518H2.96121V11.4008H11.1284ZM33.286 11.1143C36.4065 11.1143 38.89 12.1332 40.7368 14.171C42.6154 16.177 43.5548 18.9472 43.5548 22.4815V38.0518H35.4353V23.58C35.4353 21.7969 34.9736 20.4118 34.0502 19.4248C33.1268 18.4377 31.885 17.9442 30.3248 17.9442C28.7646 17.9442 27.5228 18.4377 26.5994 19.4248C25.676 20.4118 25.2143 21.7969 25.2143 23.58V38.0518H17.0471V11.4008H25.2143V14.9352C26.0422 13.7571 27.1566 12.8337 28.5576 12.165C29.9586 11.4645 31.5348 11.1143 33.286 11.1143Z" fill="black"/>
</g>
<defs>
<clipPath id="clip0">
<rect width="49" height="39" fill="white"/>
</clipPath>
</defs>
</svg>
