<svg width="45" height="40" viewBox="0 0 45 40" fill="none" xmlns="http://www.w3.org/2000/svg">
<path d="M21.5351 11.4662C21.8205 11.2156 20.9477 3.70577 27.2316 0.924589C33.5155 -1.85659 37.1959 3.28375 37.1959 3.28375L40.2634 2.18199C40.2634 2.18199 42.3475 0.744289 42.7441 1.08022C43.2123 1.47682 42.7441 3.04766 42.7441 3.04766L40.6586 6.03816C40.6586 6.03816 43.6594 4.22842 44.1982 4.89588C44.7578 5.58906 42.1932 8.12364 42.1932 8.12364L39.911 10.5239C39.911 10.5239 40.4175 20.912 35.2668 27.8156C29.7455 35.2157 18.8221 41.4825 10.2234 38.1195C6.88822 36.8152 -4.33735 32.9839 2.84461 32.6747C10.0266 32.3655 12.249 30.3925 12.249 30.3925C12.249 30.3925 7.25071 28.6611 5.21702 24.4708C3.60123 21.1415 6.45861 22.8606 7.70117 23.7078C6.27653 22.6399 2.4843 19.4102 2.29277 15.1645C2.07015 10.2297 6.15088 15.0912 6.61727 15.662C6.10223 15.0184 1.1954 8.67781 3.43363 3.42402C5.79431 -2.11719 6.00459 5.45006 12.7022 8.74558C19.3997 12.0411 21.2498 11.7168 21.5351 11.4662Z" fill="black" stroke="white" stroke-width="0.186055"/>
</svg>
